<svg width="24" height="24" viewBox="0 0 24 24" fill="none" xmlns="http://www.w3.org/2000/svg">
<path d="M14.391 18.0149C14.8198 19.6153 13.8701 21.2603 12.2697 21.6891C10.6693 22.118 9.02426 21.1682 8.59543 19.5678M10.8915 5.74097C11.1957 5.19367 11.2959 4.53217 11.1211 3.87957C10.7637 2.54591 9.39288 1.75445 8.05921 2.11181C6.72555 2.46916 5.93409 3.84 6.29144 5.17367C6.46631 5.82627 6.88384 6.34904 7.42094 6.67091M16.2359 9.44541C15.879 8.11328 14.926 6.99931 13.5868 6.34858C12.2475 5.69785 10.6316 5.56365 9.09449 5.97551C7.55741 6.38737 6.22508 7.31155 5.3906 8.54473C4.55612 9.77792 4.28785 11.2191 4.64479 12.5512C5.23537 14.7553 5.12069 16.5137 4.74774 17.8498C4.32267 19.3727 4.11014 20.1341 4.16756 20.287C4.23325 20.4619 4.28076 20.5099 4.455 20.5774C4.60729 20.6364 5.24706 20.465 6.5266 20.1222L18.3917 16.9429C19.6712 16.6001 20.311 16.4287 20.4134 16.3014C20.5305 16.1558 20.5476 16.0905 20.5171 15.9061C20.4904 15.745 19.9256 15.1919 18.796 14.0856C17.805 13.1149 16.8265 11.6495 16.2359 9.44541Z" stroke="black" stroke-width="2" stroke-linecap="round" stroke-linejoin="round"/>
</svg>
