<svg width="24" height="24" viewBox="0 0 24 24" fill="none" xmlns="http://www.w3.org/2000/svg">
<path d="M17.7448 2.81298C18.7096 1.8165 20.3036 1.80361 21.2844 2.78436C22.2382 3.73823 22.256 5.27921 21.3244 6.25481L18.5457 9.16457C18.3279 9.39265 18.219 9.50668 18.1519 9.64024C18.0925 9.75847 18.0571 9.88732 18.0479 10.0193C18.0375 10.1684 18.0729 10.3221 18.1438 10.6293L19.8717 18.1169C19.9445 18.4323 19.9809 18.59 19.9691 18.7426C19.9588 18.8776 19.921 19.0091 19.8583 19.1291C19.7874 19.2647 19.673 19.3792 19.4441 19.608L19.0733 19.9788C18.4671 20.585 18.1641 20.888 17.8539 20.9429C17.583 20.9908 17.3044 20.925 17.0835 20.761C16.8306 20.5733 16.6951 20.1666 16.424 19.3534L14.4143 13.3241L11.0689 16.6695C10.8693 16.8691 10.7694 16.969 10.7026 17.0866C10.6435 17.1907 10.6035 17.3047 10.5846 17.423C10.5633 17.5565 10.5789 17.6968 10.6101 17.9775L10.7938 19.6309C10.825 19.9116 10.8406 20.0519 10.8193 20.1854C10.8004 20.3037 10.7605 20.4177 10.7013 20.5219C10.6345 20.6394 10.5347 20.7393 10.335 20.939L10.1375 21.1365C9.6644 21.6095 9.42787 21.8461 9.16502 21.9146C8.93448 21.9746 8.69005 21.9504 8.47577 21.8463C8.23146 21.7276 8.04591 21.4493 7.67481 20.8926L6.10649 18.5401C6.04019 18.4407 6.00704 18.391 5.96855 18.3459C5.93436 18.3058 5.89707 18.2685 5.857 18.2343C5.81191 18.1958 5.76218 18.1627 5.66273 18.0964L3.31025 16.5281C2.7536 16.157 2.47527 15.9714 2.35655 15.7271C2.25242 15.5128 2.22822 15.2684 2.2883 15.0378C2.35681 14.775 2.59334 14.5385 3.06639 14.0654L3.2639 13.8679C3.46359 13.6682 3.56343 13.5684 3.68101 13.5016C3.78517 13.4424 3.89912 13.4024 4.01742 13.3836C4.15095 13.3623 4.29129 13.3779 4.57196 13.4091L6.22535 13.5928C6.50602 13.6239 6.64636 13.6395 6.77989 13.6182C6.89819 13.5994 7.01214 13.5594 7.1163 13.5002C7.23388 13.4334 7.33372 13.3336 7.53341 13.1339L10.8787 9.7886L4.84945 7.77884C4.03623 7.50776 3.62961 7.37222 3.44182 7.11932C3.27783 6.89848 3.21206 6.61984 3.25997 6.34898C3.31483 6.03879 3.6179 5.73572 4.22405 5.12957L4.59482 4.7588C4.82371 4.52991 4.93816 4.41546 5.07375 4.34457C5.19376 4.28183 5.32527 4.24411 5.46029 4.23371C5.61284 4.22197 5.77055 4.25836 6.08596 4.33115L13.5451 6.05249C13.8551 6.12401 14.01 6.15978 14.1597 6.14914C14.3041 6.13886 14.4446 6.09733 14.5715 6.02742C14.7028 5.95501 14.8135 5.84074 15.0347 5.6122L17.7448 2.81298Z" stroke="black" stroke-width="2" stroke-linecap="round" stroke-linejoin="round"/>
</svg>
